<svg xmlns="http://www.w3.org/2000/svg" fill="none" viewBox="0 0 151 65"><path fill="#001495" d="M11.925 37.75c0 .867-.2 1.642-.6 2.325-.383.683-1.008 1.217-1.875 1.6-.85.383-1.975.575-3.375.575-.983 0-1.867-.058-2.65-.175-.767-.1-1.55-.3-2.35-.6V37.65c.883.4 1.775.692 2.675.875.9.167 1.608.25 2.125.25 1.033 0 1.55-.233 1.55-.7 0-.2-.083-.375-.25-.525-.167-.15-.467-.317-.9-.5a69.282 69.282 0 0 0-1.8-.75c-1.15-.483-2.008-1.033-2.575-1.65-.567-.633-.85-1.517-.85-2.65 0-1.35.517-2.367 1.55-3.05 1.05-.683 2.433-1.025 4.15-1.025.917 0 1.775.1 2.575.3.8.2 1.633.492 2.5.875l-1.3 3.075a12.399 12.399 0 0 0-2.075-.75c-.7-.183-1.258-.275-1.675-.275-.783 0-1.175.192-1.175.575 0 .167.067.317.2.45.15.133.425.283.825.45.4.167.983.408 1.75.725.8.317 1.458.667 1.975 1.05.533.367.925.817 1.175 1.35.267.517.4 1.183.4 2zM19.34 42h-4.775V23h4.775v19zm16.506-6.95c0 2.317-.617 4.1-1.85 5.35-1.233 1.233-2.925 1.85-5.075 1.85-1.333 0-2.517-.275-3.55-.825-1.033-.567-1.85-1.383-2.45-2.45-.583-1.083-.875-2.392-.875-3.925 0-2.283.617-4.042 1.85-5.275 1.233-1.233 2.933-1.85 5.1-1.85 1.333 0 2.508.275 3.525.825 1.033.55 1.842 1.358 2.425 2.425.6 1.05.9 2.342.9 3.875zm-8.95 0c0 1.183.158 2.092.475 2.725.317.617.85.925 1.6.925.733 0 1.25-.308 1.55-.925.317-.633.475-1.542.475-2.725s-.158-2.075-.475-2.675c-.3-.6-.825-.9-1.575-.9-.717 0-1.242.3-1.575.9-.317.6-.475 1.492-.475 2.675zm18.443 3.425c.433 0 .825-.042 1.175-.125.367-.1.742-.217 1.125-.35v3.475c-.517.217-1.067.4-1.65.55-.583.15-1.325.225-2.225.225-.9 0-1.692-.142-2.375-.425-.667-.283-1.192-.767-1.575-1.45-.383-.7-.575-1.675-.575-2.925v-5.7h-1.675V29.8l2.125-1.5 1.225-2.9h3.125v2.775h3.4v3.575h-3.4v5.375c0 .9.433 1.35 1.3 1.35zM90.05 39.975c0-.867.25-1.475.75-1.825.517-.35 1.133-.525 1.85-.525.683 0 1.267.175 1.75.525.5.35.75.958.75 1.825 0 .817-.25 1.408-.75 1.775-.483.367-1.067.55-1.75.55-.717 0-1.333-.183-1.85-.55-.5-.367-.75-.958-.75-1.775zm14.127 2.275c-2.1 0-3.775-.567-5.025-1.7-1.25-1.133-1.875-2.933-1.875-5.4 0-1.683.316-3.05.95-4.1.633-1.067 1.491-1.85 2.575-2.35 1.1-.517 2.35-.775 3.75-.775.85 0 1.65.092 2.4.275a9.47 9.47 0 0 1 2.125.775l-1.4 3.525c-.567-.25-1.1-.45-1.6-.6a5.12 5.12 0 0 0-1.525-.225c-.717 0-1.3.283-1.75.85-.45.567-.675 1.433-.675 2.6 0 1.2.225 2.058.675 2.575.466.5 1.058.75 1.775.75.683 0 1.366-.108 2.05-.325a8.476 8.476 0 0 0 1.975-.9v3.8a8.21 8.21 0 0 1-1.925.9c-.717.217-1.55.325-2.5.325zm20.376-7.2c0 2.317-.617 4.1-1.85 5.35-1.233 1.233-2.925 1.85-5.075 1.85-1.333 0-2.517-.275-3.55-.825-1.033-.567-1.85-1.383-2.45-2.45-.583-1.083-.875-2.392-.875-3.925 0-2.283.617-4.042 1.85-5.275 1.233-1.233 2.933-1.85 5.1-1.85 1.333 0 2.508.275 3.525.825 1.033.55 1.842 1.358 2.425 2.425.6 1.05.9 2.342.9 3.875zm-8.95 0c0 1.183.158 2.092.475 2.725.317.617.85.925 1.6.925.733 0 1.25-.308 1.55-.925.317-.633.475-1.542.475-2.725s-.158-2.075-.475-2.675c-.3-.6-.825-.9-1.575-.9-.717 0-1.242.3-1.575.9-.317.6-.475 1.492-.475 2.675zm28.543-7.125c1.583 0 2.792.4 3.625 1.2.833.8 1.25 2.092 1.25 3.875v9h-4.775v-7.525c0-1.05-.142-1.775-.425-2.175-.283-.417-.7-.625-1.25-.625-.767 0-1.3.342-1.6 1.025-.3.667-.45 1.617-.45 2.85V42h-4.775v-7.525c0-1-.133-1.717-.4-2.15-.267-.433-.667-.65-1.2-.65-.817 0-1.375.367-1.675 1.1-.283.733-.425 1.792-.425 3.175V42h-4.775V28.175h3.6l.7 1.7h.125c.367-.567.892-1.033 1.575-1.4.7-.367 1.558-.55 2.575-.55 1.017 0 1.85.175 2.5.525.667.333 1.208.8 1.625 1.4h.15a4.337 4.337 0 0 1 1.675-1.425c.7-.333 1.483-.5 2.35-.5z"/><g filter="url(#filter0_d)"><path fill="#FF5300" d="M55.08 54l9.8-22.16H52.52v-6.4h20.6V30L63.08 54h-8z"/><path fill="#E75300" d="M55.08 54l-1.097-.485-.746 1.685h1.843V54zm9.8-22.16l1.098.485.745-1.685H64.88v1.2zm-12.36 0h-1.2v1.2h1.2v-1.2zm0-6.4v-1.2h-1.2v1.2h1.2zm20.6 0h1.2v-1.2h-1.2v1.2zm0 4.56l1.107.463.093-.222V30h-1.2zM63.08 54v1.2h.799l.308-.737L63.08 54zm-6.902.485l9.8-22.16-2.195-.97-9.8 22.16 2.195.97zM64.88 30.64H52.52v2.4h12.36v-2.4zm-11.16 1.2v-6.4h-2.4v6.4h2.4zm-1.2-5.2h20.6v-2.4h-20.6v2.4zm19.4-1.2V30h2.4v-4.56h-2.4zm.093 4.097l-10.04 24 2.214.926 10.04-24-2.214-.926zM63.08 52.8h-8v2.4h8v-2.4z"/></g><g filter="url(#filter1_d)"><path fill="#FF5300" d="M73.08 43l9.8-22.16H70.52v-6.4h20.6V19L81.08 43h-8z"/><path fill="#E75300" d="M73.08 43l-1.097-.485-.746 1.685h1.843V43zm9.8-22.16l1.098.485.745-1.685H82.88v1.2zm-12.36 0h-1.2v1.2h1.2v-1.2zm0-6.4v-1.2h-1.2v1.2h1.2zm20.6 0h1.2v-1.2h-1.2v1.2zm0 4.56l1.107.463.093-.222V19h-1.2zM81.08 43v1.2h.799l.308-.737L81.08 43zm-6.903.485l9.8-22.16-2.195-.97-9.8 22.16 2.195.97zM82.88 19.64H70.52v2.4h12.36v-2.4zm-11.16 1.2v-6.4h-2.4v6.4h2.4zm-1.2-5.2h20.6v-2.4h-20.6v2.4zm19.4-1.2V19h2.4v-4.56h-2.4zm.093 4.097l-10.04 24 2.214.926 10.04-24-2.214-.926zM81.08 41.8h-8v2.4h8v-2.4z"/></g><defs><filter id="filter0_d" width="31" height="38.96" x="47.32" y="20.24" color-interpolation-filters="sRGB" filterUnits="userSpaceOnUse"><feFlood flood-opacity="0" result="BackgroundImageFix"/><feColorMatrix in="SourceAlpha" values="0 0 0 0 0 0 0 0 0 0 0 0 0 0 0 0 0 0 127 0"/><feOffset/><feGaussianBlur stdDeviation="2"/><feColorMatrix values="0 0 0 0 1 0 0 0 0 0.36 0 0 0 0 0 0 0 0 0.3 0"/><feBlend in2="BackgroundImageFix" result="effect1_dropShadow"/><feBlend in="SourceGraphic" in2="effect1_dropShadow" result="shape"/></filter><filter id="filter1_d" width="31" height="38.96" x="65.32" y="9.24" color-interpolation-filters="sRGB" filterUnits="userSpaceOnUse"><feFlood flood-opacity="0" result="BackgroundImageFix"/><feColorMatrix in="SourceAlpha" values="0 0 0 0 0 0 0 0 0 0 0 0 0 0 0 0 0 0 127 0"/><feOffset/><feGaussianBlur stdDeviation="2"/><feColorMatrix values="0 0 0 0 1 0 0 0 0 0.36 0 0 0 0 0 0 0 0 0.3 0"/><feBlend in2="BackgroundImageFix" result="effect1_dropShadow"/><feBlend in="SourceGraphic" in2="effect1_dropShadow" result="shape"/></filter></defs></svg>