<svg xmlns="http://www.w3.org/2000/svg" xmlns:xlink="http://www.w3.org/1999/xlink"><symbol fill="none" id="sprite-arrow_left" viewBox="0 0 13 21"><title>arrow_left</title><path d="M.515 10.5c0-.376.143-.753.43-1.04L9.975.43a1.47 1.47 0 112.08 2.08l-7.99 7.99 7.99 7.99a1.47 1.47 0 01-2.08 2.079l-9.03-9.03a1.467 1.467 0 01-.43-1.04z" fill="#001395"/></symbol><symbol fill="none" id="sprite-arrow_right" viewBox="0 0 13 21"><title>arrow_right</title><path d="M12.485 10.5c0-.376-.143-.753-.43-1.04L3.025.43a1.47 1.47 0 10-2.08 2.08l7.99 7.99-7.99 7.99a1.47 1.47 0 002.08 2.079l9.03-9.03c.287-.287.43-.663.43-1.04z" fill="#001395"/></symbol><symbol fill="none" id="sprite-crumb-arrow" viewBox="0 0 17 8"><title>crumb-arrow</title><path d="M16.354 4.354a.5.5 0 000-.708L13.172.464a.5.5 0 10-.708.708L15.293 4l-2.829 2.828a.5.5 0 10.708.708l3.182-3.182zM0 4.5h16v-1H0v1z" fill="#fff"/></symbol><symbol id="sprite-facebook" viewBox="0 0 1024 1024"><title/><path d="M767.962.213L635.173 0C485.99 0 389.584 98.913 389.584 252.008V368.2H256.07c-11.537 0-20.88 9.353-20.88 20.89v168.352c0 11.537 9.353 20.879 20.88 20.879h133.514v424.8c0 11.537 9.342 20.879 20.879 20.879h174.196c11.537 0 20.879-9.353 20.879-20.879v-424.8h156.105c11.537 0 20.883-9.342 20.883-20.879l.061-168.352a20.916 20.916 0 00-6.113-14.763 20.881 20.881 0 00-14.776-6.127h-156.16v-98.497c0-47.342 11.281-71.375 72.95-71.375l89.453-.032c11.527 0 20.869-9.353 20.869-20.88V21.093c0-11.516-9.332-20.859-20.849-20.88z"/></symbol><symbol class="ldi-47ibm8" preserveAspectRatio="xMidYMid" style="width:525px;webkit-user-select:none;webkit-transform-origin:262.5px 262.5px;webkit-perspective-origin:262.5px 262.5px;webkit-logical-width:525px;webkit-logical-height:525px;user-select:none;transform-origin:262.5px 262.5px;r:0;perspective-origin:262.5px 262.5px;overflow-y:hidden;overflow-x:hidden;inline-size:525px;height:525px;d:none;block-size:525px;background:0 0/auto padding-box border-box" pointer-events="all" overflow="hidden" display="block" id="sprite-ok" viewBox="0 0 100 100"><title>ok</title><svg version="1.1" id="圖層_1" xmlns="http://www.w3.org/2000/svg" x="0" y="0" viewBox="0 0 100 100" xml:space="preserve" style="x:0;webkit-user-select:none;webkit-transform-origin:50px 50px;webkit-perspective-origin:0 0;user-select:none;transform-origin:50px 50px;r:0;perspective-origin:0 0;overflow-y:hidden;overflow-x:hidden" pointer-events="all" overflow="hidden" display="block"><g style="x:0;webkit-user-select:none;webkit-transform-origin:50px 50px;webkit-perspective-origin:0 0;user-select:none;transform-origin:50px 50px;r:0;perspective-origin:0 0"><g style="x:0;webkit-user-select:none;webkit-transform-origin:50px 50px;webkit-transform:matrix(.7,0,0,.7,0,0);webkit-perspective-origin:0 0;user-select:none;transform-origin:50px 50px;r:0;perspective-origin:0 0"><g style="x:0;webkit-user-select:none;webkit-transform-origin:50px 50px;webkit-perspective-origin:0 0;user-select:none;transform-origin:50px 50px;r:0;perspective-origin:0 0"><g style="webkit-user-select:none;webkit-perspective-origin:0 0;user-select:none;perspective-origin:0 0" transform="scale(.7)"><style/><g style="y:0;x:0;webkit-user-select:none;webkit-transform-origin:50px 50px;webkit-perspective-origin:0 0;webkit-animation-duration:2.2s;webkit-animation-delay:.169231s;webkit-animation:2.2s ease .169231s 1 normal none running none;user-select:none;transform-origin:50px 50px;r:0;perspective-origin:0 0;d:none"><circle cx="50" cy="50" r="40" stroke="#3c3" style="webkit-user-select:none;webkit-perspective-origin:0 0;user-select:none;r:40px;perspective-origin:0 0;cy:50px;cx:50px" stroke-width="8" stroke-miterlimit="10" fill="none"/></g><g style="x:0;webkit-user-select:none;webkit-transform-origin:50px 50px;webkit-perspective-origin:0 0;user-select:none;transform-origin:50px 50px;r:0;perspective-origin:0 0"><g style="webkit-user-select:none;webkit-perspective-origin:0 0;user-select:none;perspective-origin:0 0"><g style="y:0;x:0;webkit-user-select:none;webkit-transform-origin:50px 50px;webkit-perspective-origin:0 0;webkit-animation-duration:2.2s;webkit-animation-delay:.338462s;webkit-animation:2.2s ease .338462s 1 normal none running none;user-select:none;transform-origin:50px 50px;r:0;perspective-origin:0 0;d:none" class="ld"><path fill="#3c3" style="webkit-user-select:none;webkit-perspective-origin:0 0;user-select:none;r:0;perspective-origin:0 0" d="M43.7 69.4L25 47.7l3.9-3.9 14.8 12.6 28.6-25.8 2.7 2.7z"/></g></g></g></g></g></g></g><style>@keyframes ldt-bounce-in{0%{-webkit-transform:scale(0);transform:scale(0)}5%{-webkit-transform:scale(.0846);transform:scale(.0846)}6%{-webkit-transform:scale(.191);transform:scale(.191)}7%{-webkit-transform:scale(.3255);transform:scale(.3255)}8%{-webkit-transform:scale(.4804);transform:scale(.4804)}9%{-webkit-transform:scale(.646);transform:scale(.646)}10%{-webkit-transform:scale(.8116);transform:scale(.8116)}11%{-webkit-transform:scale(.9665);transform:scale(.9665)}12%{-webkit-transform:scale(1.1);transform:scale(1.1)}13%{-webkit-transform:scale(1.2069);transform:scale(1.2069)}14%{-webkit-transform:scale(1.2796);transform:scale(1.2796)}19%{-webkit-transform:scale(1.1558);transform:scale(1.1558)}20%{-webkit-transform:scale(1.07);transform:scale(1.07)}21%{-webkit-transform:scale(.9823);transform:scale(.9823)}22%{-webkit-transform:scale(.901);transform:scale(.901)}23%{-webkit-transform:scale(.8328);transform:scale(.8328)}25%{-webkit-transform:scale(.7551);transform:scale(.7551)}29%{-webkit-transform:scale(.8516);transform:scale(.8516)}31%{-webkit-transform:scale(.973);transform:scale(.973)}33%{-webkit-transform:scale(1.0857);transform:scale(1.0857)}35%{-webkit-transform:scale(1.1538);transform:scale(1.1538)}40%{-webkit-transform:scale(1.0771);transform:scale(1.0771)}42%{-webkit-transform:scale(.9954);transform:scale(.9954)}45%{-webkit-transform:scale(.9057);transform:scale(.9057)}52%{-webkit-transform:scale(.9908);transform:scale(.9908)}56%{-webkit-transform:scale(1.0623);transform:scale(1.0623)}64%{-webkit-transform:scale(.9845);transform:scale(.9845)}}@-webkit-keyframes ldt-bounce-in{0%{-webkit-transform:scale(0);transform:scale(0)}5%{-webkit-transform:scale(.0846);transform:scale(.0846)}6%{-webkit-transform:scale(.191);transform:scale(.191)}7%{-webkit-transform:scale(.3255);transform:scale(.3255)}8%{-webkit-transform:scale(.4804);transform:scale(.4804)}9%{-webkit-transform:scale(.646);transform:scale(.646)}10%{-webkit-transform:scale(.8116);transform:scale(.8116)}11%{-webkit-transform:scale(.9665);transform:scale(.9665)}12%{-webkit-transform:scale(1.1);transform:scale(1.1)}13%{-webkit-transform:scale(1.2069);transform:scale(1.2069)}14%{-webkit-transform:scale(1.2796);transform:scale(1.2796)}19%{-webkit-transform:scale(1.1558);transform:scale(1.1558)}20%{-webkit-transform:scale(1.07);transform:scale(1.07)}21%{-webkit-transform:scale(.9823);transform:scale(.9823)}22%{-webkit-transform:scale(.901);transform:scale(.901)}23%{-webkit-transform:scale(.8328);transform:scale(.8328)}25%{-webkit-transform:scale(.7551);transform:scale(.7551)}29%{-webkit-transform:scale(.8516);transform:scale(.8516)}31%{-webkit-transform:scale(.973);transform:scale(.973)}33%{-webkit-transform:scale(1.0857);transform:scale(1.0857)}35%{-webkit-transform:scale(1.1538);transform:scale(1.1538)}40%{-webkit-transform:scale(1.0771);transform:scale(1.0771)}42%{-webkit-transform:scale(.9954);transform:scale(.9954)}45%{-webkit-transform:scale(.9057);transform:scale(.9057)}52%{-webkit-transform:scale(.9908);transform:scale(.9908)}56%{-webkit-transform:scale(1.0623);transform:scale(1.0623)}64%{-webkit-transform:scale(.9845);transform:scale(.9845)}}</style></svg></symbol><symbol id="sprite-pinterest" viewBox="0 0 1024 1024"><title/><path d="M810.033 104.932C739.548 37.266 642.004-.001 535.368-.001c-162.889 0-263.073 66.771-318.433 122.782-68.227 69.026-107.351 160.68-107.351 251.465 0 113.986 47.678 201.476 127.521 234.023 5.36 2.198 10.754 3.304 16.041 3.304 16.844 0 30.19-11.022 34.814-28.703 2.695-10.141 8.94-35.161 11.655-46.025 5.813-21.449 1.116-31.768-11.56-46.705-23.092-27.324-33.846-59.634-33.846-101.683 0-124.904 93.005-257.649 265.379-257.649 136.773 0 221.735 77.736 221.735 202.869 0 78.963-17.009 152.092-47.903 205.923-21.466 37.403-59.218 81.988-117.17 81.988-25.061 0-47.572-10.291-61.778-28.239-13.418-16.968-17.841-38.885-12.445-61.727 6.1-25.805 14.411-52.726 22.456-78.752 14.674-47.531 28.546-92.426 28.546-128.243 0-61.265-37.666-102.43-93.713-102.43-71.233 0-127.04 72.349-127.04 164.71 0 45.295 12.037 79.176 17.489 92.184-8.974 38.021-62.306 264.06-72.422 306.686-5.849 24.883-41.086 221.41 17.237 237.081 65.528 17.606 124.102-173.798 130.065-195.428 4.83-17.589 21.736-84.101 32.099-124.99 31.631 30.471 82.565 51.07 132.128 51.07 93.43 0 177.453-42.045 236.596-118.379 57.358-74.042 88.948-177.238 88.948-290.568 0-88.597-38.048-175.941-104.38-239.63z"/></symbol><symbol id="sprite-plus-18" viewBox="0 0 1024 1024"><title/><path d="M323.918 686.374V408.366H259.65v-71.242h152.949v349.25h-88.682zm421.974-259.075c0 30.39-16.44 57.294-43.84 72.242 38.357 15.939 62.274 49.323 62.274 88.183 0 62.773-55.801 102.631-142.985 102.631-87.189 0-142.987-39.361-142.987-101.134 0-39.86 25.907-73.741 66.26-89.68-29.393-16.444-48.325-44.339-48.325-74.73 0-55.804 48.828-91.173 124.553-91.173 76.724 0 125.05 36.369 125.05 93.661zM562.051 580.253c0 29.398 20.927 45.838 59.29 45.838 38.361 0 59.783-15.939 59.783-45.838 0-28.892-21.422-45.339-59.783-45.339-38.365 0-59.29 16.444-59.29 45.339zm8.97-147.972c0 24.917 17.935 38.86 50.319 38.86s50.317-13.947 50.317-38.86c0-25.9-17.935-40.351-50.317-40.351-32.386 0-50.319 14.451-50.319 40.351z"/><path d="M911.905 376.551c14.744 43.514 22.223 89.028 22.223 135.448 0 232.758-189.365 422.124-422.126 422.124S89.872 744.757 89.872 511.999c0-232.765 189.365-422.124 422.127-422.124 46.426 0 91.94 7.473 135.448 22.223V18.159C603.499 6.112 558.11 0 512.003 0 229.689 0 .006 229.682.006 512s229.683 512 511.997 512 511.992-229.682 511.992-512c0-46.106-6.109-91.497-18.156-135.448h-93.932z"/><path d="M886.341 137.355V39.181h-70.595v98.174h-97.585v70.589h97.585v98.17h70.595v-98.17h98.168v-70.589h-98.168z"/></symbol><symbol id="sprite-star-fill" viewBox="0 0 1024 1024"><title>star-fill</title><defs><linearGradient id="a" x1="33%" y1="0%" x2="50%" y2="100%"><stop offset="0%" stop-color="#F1FF0A"/><stop offset="100%" stop-color="#FF5C00"/></linearGradient></defs><path fill="url('#a')" d="M512 25.059l120.868 371.99H1024L707.565 626.952l120.87 371.989L512 769.037 195.566 998.941l120.868-371.989L0 397.049h391.133l120.868-371.99z"/><path fill="url('#a')" d="M512 25.059l120.868 371.99H1024L707.565 626.952l120.87 371.989L512 769.037 195.566 998.941l120.868-371.989L0 397.049h391.133l120.868-371.99z"/></symbol><symbol id="sprite-star-stroke" viewBox="0 0 1024 1024"><title>star-stroke</title><path fill="none" stroke="#FA8D03" stroke-width="21.943" d="M512 47.927l115.19 354.52h372.767L698.382 621.553l2.465 7.581 112.728 346.938L512 756.965 210.427 976.072l115.19-354.519L24.044 402.447h372.765l115.19-354.52z"/></symbol><symbol id="sprite-twitter" viewBox="0 0 1024 1024"><title/><path d="M1023.999 194.496c-38.079 16.704-78.657 27.776-120.962 33.152 43.519-25.985 76.739-66.816 92.354-116.031-40.577 24.192-85.378 41.28-133.12 50.816-38.529-41.024-93.44-66.432-153.344-66.432-116.224 0-209.794 94.336-209.794 209.984 0 16.64 1.41 32.64 4.864 47.872-174.527-8.512-328.959-92.159-432.703-219.584-18.112 31.424-28.736 67.392-28.736 106.113 0 72.704 37.44 137.153 93.248 174.463-33.729-.637-66.816-10.431-94.848-25.854v2.303c0 102.017 72.768 186.751 168.192 206.273-17.088 4.673-35.712 6.912-55.04 6.912-13.44 0-27.008-.768-39.745-3.584 27.201 83.135 104.384 144.254 196.161 146.24-71.424 55.869-162.113 89.536-260.289 89.536-17.216 0-33.729-.768-50.239-2.88 92.992 59.969 203.2 94.209 322.048 94.209 386.304 0 597.504-320.001 597.504-597.376 0-9.28-.32-18.24-.768-27.137 41.663-29.569 76.67-66.496 105.215-108.992z"/></symbol></svg>