<!-- Generated by IcoMoon.io -->
<svg version="1.1" xmlns="http://www.w3.org/2000/svg" width="1024" height="1024" viewBox="0 0 1024 1024">
<title></title>
<g id="icomoon-ignore">
</g>
<path d="M767.962 0.213l-132.789-0.213c-149.183 0-245.589 98.913-245.589 252.008v116.192h-133.514c-11.537 0-20.88 9.353-20.88 20.89v168.352c0 11.537 9.353 20.879 20.88 20.879h133.514v424.8c0 11.537 9.342 20.879 20.879 20.879h174.196c11.537 0 20.879-9.353 20.879-20.879v-424.8h156.105c11.537 0 20.883-9.342 20.883-20.879l0.061-168.352c0-5.536-2.205-10.844-6.113-14.763-3.912-3.922-9.236-6.127-14.776-6.127h-156.16v-98.497c0-47.342 11.281-71.375 72.95-71.375l89.453-0.032c11.527 0 20.869-9.353 20.869-20.88v-156.323c0-11.516-9.332-20.859-20.849-20.88z"></path>
</svg>
