<!-- Generated by IcoMoon.io -->
<svg version="1.1" xmlns="http://www.w3.org/2000/svg" width="1024" height="1024" viewBox="0 0 1024 1024">
<title></title>
<g id="icomoon-ignore">
</g>
<path d="M810.033 104.932c-70.485-67.666-168.029-104.933-274.665-104.933-162.889 0-263.073 66.771-318.433 122.782-68.227 69.026-107.351 160.68-107.351 251.465 0 113.986 47.678 201.476 127.521 234.023 5.36 2.198 10.754 3.304 16.041 3.304 16.844 0 30.19-11.022 34.814-28.703 2.695-10.141 8.94-35.161 11.655-46.025 5.813-21.449 1.116-31.768-11.56-46.705-23.092-27.324-33.846-59.634-33.846-101.683 0-124.904 93.005-257.649 265.379-257.649 136.773 0 221.735 77.736 221.735 202.869 0 78.963-17.009 152.092-47.903 205.923-21.466 37.403-59.218 81.988-117.17 81.988-25.061 0-47.572-10.291-61.778-28.239-13.418-16.968-17.841-38.885-12.445-61.727 6.1-25.805 14.411-52.726 22.456-78.752 14.674-47.531 28.546-92.426 28.546-128.243 0-61.265-37.666-102.43-93.713-102.43-71.233 0-127.040 72.349-127.040 164.71 0 45.295 12.037 79.176 17.489 92.184-8.974 38.021-62.306 264.060-72.422 306.686-5.849 24.883-41.086 221.41 17.237 237.081 65.528 17.606 124.102-173.798 130.065-195.428 4.83-17.589 21.736-84.101 32.099-124.99 31.631 30.471 82.565 51.070 132.128 51.070 93.43 0 177.453-42.045 236.596-118.379 57.358-74.042 88.948-177.238 88.948-290.568 0-88.597-38.048-175.941-104.38-239.63z"></path>
</svg>
