<!-- Generated by IcoMoon.io -->
<svg version="1.1" xmlns="http://www.w3.org/2000/svg" width="1024" height="1024" viewBox="0 0 1024 1024">
<title></title>
<g id="icomoon-ignore">
</g>
<path d="M323.918 686.374v-278.008h-64.268v-71.242h152.949v349.25h-88.682z"></path>
<path d="M745.892 427.299c0 30.39-16.44 57.294-43.84 72.242 38.357 15.939 62.274 49.323 62.274 88.183 0 62.773-55.801 102.631-142.985 102.631-87.189 0-142.987-39.361-142.987-101.134 0-39.86 25.907-73.741 66.26-89.68-29.393-16.444-48.325-44.339-48.325-74.73 0-55.804 48.828-91.173 124.553-91.173 76.724 0 125.050 36.369 125.050 93.661zM562.051 580.253c0 29.398 20.927 45.838 59.29 45.838 38.361 0 59.783-15.939 59.783-45.838 0-28.892-21.422-45.339-59.783-45.339-38.365 0-59.29 16.444-59.29 45.339zM571.021 432.281c0 24.917 17.935 38.86 50.319 38.86s50.317-13.947 50.317-38.86c0-25.9-17.935-40.351-50.317-40.351-32.386 0-50.319 14.451-50.319 40.351z"></path>
<path d="M911.905 376.551c14.744 43.514 22.223 89.028 22.223 135.448 0 232.758-189.365 422.124-422.126 422.124s-422.13-189.366-422.13-422.124c0-232.765 189.365-422.124 422.127-422.124 46.426 0 91.94 7.473 135.448 22.223v-93.939c-43.948-12.047-89.337-18.159-135.444-18.159-282.314 0-511.997 229.682-511.997 512s229.683 512 511.997 512c282.314 0 511.992-229.682 511.992-512 0-46.106-6.109-91.497-18.156-135.448h-93.932z"></path>
<path d="M886.341 137.355v-98.174h-70.595v98.174h-97.585v70.589h97.585v98.17h70.595v-98.17h98.168v-70.589h-98.168z"></path>
</svg>
