<!-- Generated by IcoMoon.io -->
<svg version="1.1" xmlns="http://www.w3.org/2000/svg" width="1024" height="1024" viewBox="0 0 1024 1024">
<title></title>
<g id="icomoon-ignore">
</g>
<path d="M1023.999 194.496c-38.079 16.704-78.657 27.776-120.962 33.152 43.519-25.985 76.739-66.816 92.354-116.031-40.577 24.192-85.378 41.28-133.12 50.816-38.529-41.024-93.44-66.432-153.344-66.432-116.224 0-209.794 94.336-209.794 209.984 0 16.64 1.41 32.64 4.864 47.872-174.527-8.512-328.959-92.159-432.703-219.584-18.112 31.424-28.736 67.392-28.736 106.113 0 72.704 37.44 137.153 93.248 174.463-33.729-0.637-66.816-10.431-94.848-25.854 0 0.639 0 1.472 0 2.303 0 102.017 72.768 186.751 168.192 206.273-17.088 4.673-35.712 6.912-55.040 6.912-13.44 0-27.008-0.768-39.745-3.584 27.201 83.135 104.384 144.254 196.161 146.24-71.424 55.869-162.113 89.536-260.289 89.536-17.216 0-33.729-0.768-50.239-2.88 92.992 59.969 203.2 94.209 322.048 94.209 386.304 0 597.504-320.001 597.504-597.376 0-9.28-0.32-18.24-0.768-27.137 41.663-29.569 76.67-66.496 105.215-108.992z"></path>
</svg>
