<svg xmlns="http://www.w3.org/2000/svg" viewBox="0 0 106.872 82.78"><path fill="#282828" stroke-width=".927" d="M.266 81.788C.02 81.146-.072 62.482.061 40.31L.303 0H106.872v82.475l-53.08.24C11.824 82.905.62 82.71.267 81.788zM105.482 41.23V1.375l-52.126.24-52.127.239-.242 38.457C.854 61.462.946 79.289 1.19 79.927c.348.908 11.67 1.159 52.368 1.159h51.924zm-97.303.008V8.803h88.962v64.869H8.18zm33.593 27.61c5.479-1.668 9.962-3.275 9.962-3.57 0-.296-3.7-4.158-8.221-8.582-7.39-7.231-8.574-8.045-11.713-8.045-3.17 0-4.337.83-12.63 8.977-7.272 7.145-9.137 9.51-9.137 11.584v2.607l10.888.032c9.707.033 11.97-.297 20.85-3.001zm53.516-2.59v-5.56h-3.356c-8.59 0-36.212 5.239-48.075 9.117l-5.56 1.819 28.495.087 28.496.088zm-29.166-3.603c5.11-1.008 13.763-2.353 19.229-2.989l9.937-1.155v-3.32c0-3.032-1.073-4.386-12.279-15.496C76.256 33 69.81 27.25 68.681 26.915c-1.128-.334-3.004-.122-4.17.472-2.64 1.343-23.897 22.287-23.897 23.545 0 1.787 13.36 14.401 14.8 13.975.78-.23 5.598-1.244 10.708-2.252zM31.474 46.798c1.742 0 4.13.674 5.306 1.498 2.107 1.475 2.33 1.31 14.415-10.657C63.141 25.81 63.58 25.484 67.485 25.484c3.898 0 4.354.337 15.908 11.77l11.895 11.769V10.657H10.033v54.095l9.137-8.977c7.957-7.818 9.546-8.977 12.304-8.977zm-8.973-14.322c-2.78-2.78-2.902-5.945-.354-9.184 2.51-3.192 7.116-3.329 9.965-.297 6.218 6.62-3.191 15.901-9.611 9.481zm8.848-.972c.636-.766 1.156-2.433 1.156-3.704 0-3.297-1.856-5.096-5.257-5.096-3.707 0-5.168 1.44-5.168 5.096 0 1.58.5 3.373 1.112 3.985 1.564 1.564 6.775 1.385 8.157-.281z"/></svg>