<!-- Generated by IcoMoon.io -->
<svg version="1.1" xmlns="http://www.w3.org/2000/svg" width="1024" height="1024" viewBox="0 0 1024 1024">
<title></title>
<g id="icomoon-ignore">
</g>

    <defs>
        <linearGradient id="logo-gradient" x1="25%" y1="0%" x2="75%" y2="100%" >

            <stop offset="0%" stop-color="#FF5C00">
                <animate attributeName="stop-color" values="#FF5C00; #001395; #FF5C00" dur="2s" repeatCount="indefinite"></animate>
            </stop>

            <stop offset="100%" stop-color="#001395">
                <animate attributeName="stop-color" values="#001395; #FF5C00; #001395" dur="2s" repeatCount="indefinite"></animate>
            </stop>

        </linearGradient>
    </defs>

<path fill="url('#logo-gradient')" d="M103.474 994.715l239.161-540.797h-301.636v-156.187h502.726v111.283l-245.018 585.701z"></path>
<path fill="url('#logo-gradient')" d="M103.474 994.715l-26.783-11.843-18.189 41.128h44.972zM342.635 453.918l26.784 11.843 18.188-41.128h-44.972zM40.999 453.918h-29.285v29.285h29.285zM40.999 297.732v-29.285h-29.285v29.285zM543.725 297.732h29.285v-29.285h-29.285zM543.725 409.015l27.015 11.302 2.27-5.423v-5.879zM298.707 994.715v29.285h19.494l7.521-17.983zM130.257 1006.559l239.162-540.797-53.567-23.687-239.16 540.797zM342.635 424.633h-301.636v58.57h301.636zM70.284 453.918v-156.187h-58.57v156.187zM40.999 327.017h502.726v-58.57h-502.726zM514.44 297.732v111.283h58.57v-111.283zM516.71 397.713l-245.018 585.701 54.031 22.603 245.018-585.701zM298.707 965.43h-195.234v58.57h195.234z"></path>
<path fill="url('#logo-gradient')" d="M542.749 726.269l239.161-540.797h-301.636v-156.187h502.726v111.283l-245.018 585.701z"></path>
<path fill="url('#logo-gradient')" d="M542.749 726.269l-26.784-11.843-18.188 41.128h44.972zM781.91 185.472l26.784 11.843 18.188-41.128h-44.972zM480.275 185.472h-29.285v29.285h29.285zM480.275 29.285v-29.285h-29.285v29.285zM983.001 29.285h29.285v-29.285h-29.285zM983.001 140.569l27.015 11.302 2.27-5.423v-5.879zM737.983 726.269v29.285h19.494l7.521-17.983zM569.533 738.113l239.161-540.797-53.567-23.687-239.161 540.797zM781.91 156.187h-301.636v58.57h301.636zM509.56 185.472v-156.187h-58.57v156.187zM480.275 58.57h502.726v-58.57h-502.726zM953.716 29.285v111.283h58.57v-111.283zM955.986 129.267l-245.018 585.701 54.031 22.603 245.018-585.701zM737.983 696.984h-195.234v58.57h195.234z"></path>
</svg>
